<svg width="32" height="32" viewBox="0 0 32 32" fill="none" xmlns="http://www.w3.org/2000/svg">
<path d="M10.336 7.40005L9.39401 8.34205C9.27076 8.46519 9.173 8.61141 9.10629 8.77236C9.03959 8.93331 9.00525 9.10582 9.00525 9.28004C9.00525 9.45427 9.03959 9.62678 9.10629 9.78773C9.173 9.94867 9.27076 10.0949 9.39401 10.218L12.17 13H2.33201C2.15866 12.9985 1.9867 13.031 1.82594 13.0959C1.66519 13.1608 1.51879 13.2567 1.3951 13.3782C1.27141 13.4996 1.17285 13.6443 1.10506 13.8038C1.03727 13.9634 1.00157 14.1347 1.00001 14.308V15.65C0.998931 16.0053 1.13835 16.3466 1.38787 16.5995C1.63739 16.8524 1.97676 16.9964 2.33201 17H12.17L9.37001 19.786C9.12086 20.0354 8.98091 20.3735 8.98091 20.726C8.98091 21.0786 9.12086 21.4167 9.37001 21.666L10.314 22.608C10.4377 22.7318 10.5846 22.8299 10.7462 22.8969C10.9078 22.9638 11.0811 22.9983 11.256 22.9983C11.431 22.9983 11.6042 22.9638 11.7658 22.8969C11.9275 22.8299 12.0743 22.7318 12.198 22.608L18.424 16.388C18.7938 16.016 19.0014 15.5127 19.0014 14.988C19.0014 14.4634 18.7938 13.9601 18.424 13.588L12.224 7.41005C12.1003 7.28632 11.9535 7.18817 11.7918 7.12121C11.6302 7.05425 11.457 7.01978 11.282 7.01978C11.1071 7.01978 10.9338 7.05425 10.7722 7.12121C10.6106 7.18817 10.4637 7.28632 10.34 7.41005L10.336 7.40005Z" fill="url(#paint0_linear_2_160)"/>
<path d="M24 31V28H8V31H24ZM31 27V3H1V9H4V6H28V24H4V21H1V27H31Z" fill="url(#paint1_linear_2_160)"/>
<defs>
<linearGradient id="paint0_linear_2_160" x1="10.0007" y1="7.01978" x2="10.0007" y2="22.9983" gradientUnits="userSpaceOnUse">
<stop stop-color="#34B5F0"/>
<stop offset="1" stop-color="#212E66"/>
</linearGradient>
<linearGradient id="paint1_linear_2_160" x1="16" y1="3" x2="16" y2="31" gradientUnits="userSpaceOnUse">
<stop stop-color="#34B5F0"/>
<stop offset="1" stop-color="#212E66"/>
</linearGradient>
</defs>
</svg>
