<svg width="32" height="32" viewBox="0 0 32 32" fill="none" xmlns="http://www.w3.org/2000/svg">
<path d="M22.336 7.40005L21.394 8.34205C21.2708 8.46519 21.173 8.61141 21.1063 8.77236C21.0396 8.93331 21.0053 9.10582 21.0053 9.28004C21.0053 9.45427 21.0396 9.62678 21.1063 9.78773C21.173 9.94867 21.2708 10.0949 21.394 10.218L24.17 13H14.332C14.1587 12.9985 13.9867 13.031 13.8259 13.0959C13.6652 13.1608 13.5188 13.2567 13.3951 13.3782C13.2714 13.4996 13.1729 13.6443 13.1051 13.8038C13.0373 13.9634 13.0016 14.1347 13 14.308V15.65C12.9989 16.0053 13.1384 16.3466 13.3879 16.5995C13.6374 16.8524 13.9768 16.9964 14.332 17H24.17L21.37 19.786C21.1209 20.0354 20.9809 20.3735 20.9809 20.726C20.9809 21.0786 21.1209 21.4167 21.37 21.666L22.314 22.608C22.4377 22.7318 22.5846 22.8299 22.7462 22.8969C22.9078 22.9638 23.0811 22.9983 23.256 22.9983C23.431 22.9983 23.6042 22.9638 23.7658 22.8969C23.9275 22.8299 24.0743 22.7318 24.198 22.608L30.424 16.388C30.7938 16.016 31.0014 15.5127 31.0014 14.988C31.0014 14.4634 30.7938 13.9601 30.424 13.588L24.224 7.41005C24.1003 7.28632 23.9535 7.18817 23.7918 7.12121C23.6302 7.05425 23.457 7.01978 23.282 7.01978C23.1071 7.01978 22.9338 7.05425 22.7722 7.12121C22.6106 7.18817 22.4637 7.28632 22.34 7.41005L22.336 7.40005Z" fill="url(#paint0_linear_2_157)"/>
<path d="M8 31V28H24V31H8ZM1 27V3H31V9H28V6H4V24H28V21H31V27H1Z" fill="url(#paint1_linear_2_157)"/>
<defs>
<linearGradient id="paint0_linear_2_157" x1="22.0007" y1="7.01978" x2="22.0007" y2="22.9983" gradientUnits="userSpaceOnUse">
<stop stop-color="#34B5F0"/>
<stop offset="1" stop-color="#212E66"/>
</linearGradient>
<linearGradient id="paint1_linear_2_157" x1="16" y1="3" x2="16" y2="31" gradientUnits="userSpaceOnUse">
<stop stop-color="#34B5F0"/>
<stop offset="1" stop-color="#212E66"/>
</linearGradient>
</defs>
</svg>
